<svg xmlns="http://www.w3.org/2000/svg" width="14.497" height="16.568" viewBox="0 0 14.497 16.568">
  <path id="Icon_metro-attachment" data-name="Icon metro-attachment" d="M13.79,7.22l-1.051-1.05L7.484,11.423a2.229,2.229,0,0,0,3.153,3.153l6.306-6.305a3.715,3.715,0,0,0-5.255-5.254L5.067,9.637l-.014.014a5.182,5.182,0,0,0,7.329,7.328l.013-.014h0l4.52-4.519L15.864,11.4l-4.519,4.518-.014.014A3.7,3.7,0,0,1,6.1,10.7l.014-.014h0l6.622-6.62A2.229,2.229,0,0,1,15.892,7.22L9.586,13.525a.743.743,0,1,1-1.051-1.05L13.79,7.22Z" transform="translate(-3.535 -1.928)" fill="rgba(22,39,74,0.66)"/>
</svg>
